<?xml version="1.0" encoding="utf-8"?>
<!-- Generator: Adobe Illustrator 16.0.4, SVG Export Plug-In . SVG Version: 6.00 Build 0)  -->
<!DOCTYPE svg PUBLIC "-//W3C//DTD SVG 1.1//EN" "http://www.w3.org/Graphics/SVG/1.1/DTD/svg11.dtd">
<svg version="1.1" id="Layer_1" xmlns="http://www.w3.org/2000/svg" xmlns:xlink="http://www.w3.org/1999/xlink" x="0px" y="0px"
	 width="30.667px" height="30.667px" viewBox="34.5 34.5 30.667 30.667" enable-background="new 34.5 34.5 30.667 30.667"
	 xml:space="preserve">
<path fill="#FFFFFF" d="M58.973,60.289c-0.352,0-0.683-0.138-0.932-0.387L50,51.861l-8.04,8.042
	c-0.249,0.248-0.58,0.386-0.932,0.386s-0.683-0.138-0.932-0.387c-0.513-0.513-0.513-1.348,0-1.861L48.138,50l-8.041-8.041
	c-0.513-0.514-0.513-1.349,0-1.863c0.249-0.248,0.579-0.385,0.931-0.385s0.683,0.137,0.932,0.386L50,48.138l8.041-8.041
	c0.249-0.249,0.58-0.386,0.932-0.386c0.351,0,0.682,0.137,0.931,0.386s0.386,0.58,0.386,0.931c0,0.352-0.137,0.683-0.386,0.932
	L51.861,50l8.042,8.041c0.249,0.249,0.386,0.579,0.386,0.931s-0.137,0.683-0.386,0.932C59.654,60.151,59.323,60.289,58.973,60.289z"
	/>
</svg>
