<?xml version="1.0" encoding="utf-8"?>
<!-- Generator: Adobe Illustrator 16.0.4, SVG Export Plug-In . SVG Version: 6.00 Build 0)  -->
<!DOCTYPE svg PUBLIC "-//W3C//DTD SVG 1.1//EN" "http://www.w3.org/Graphics/SVG/1.1/DTD/svg11.dtd">
<svg version="1.1" xmlns="http://www.w3.org/2000/svg" xmlns:xlink="http://www.w3.org/1999/xlink" x="0px" y="0px"
	 width="55.188px" height="19.688px" viewBox="31 1.75 55.188 19.688" enable-background="new 31 1.75 55.188 19.688"
	 xml:space="preserve">
<g id="Layer_2" display="none">
	<rect x="31" y="1.75" display="inline" fill="#222D33" width="55.188" height="19.688"/>
</g>
<g id="Layer_1">
	<path fill="#EFD446" d="M40.061,9.168c-0.134,0.088-0.285,0.132-0.456,0.132h-0.052c0,0.01,0,0.022,0,0.037v3.361l3.082,4.06
		c0.205,0.274,0.289,0.577,0.249,0.905c-0.049,0.328-0.21,0.603-0.484,0.824c-0.28,0.221-0.604,0.33-0.972,0.33l-6.693,0.037
		c-0.367,0.005-0.692-0.103-0.971-0.323c-0.279-0.215-0.444-0.49-0.493-0.824c-0.05-0.328,0.029-0.63,0.235-0.904l3.111-4.105V9.337
		c0-0.015,0-0.026,0-0.037h-0.073c-0.172,0-0.323-0.044-0.456-0.132c-0.035-0.024-0.068-0.052-0.104-0.081
		c-0.146-0.138-0.221-0.302-0.221-0.493c0-0.201,0.074-0.371,0.221-0.508c0.157-0.137,0.343-0.206,0.56-0.206h3.06
		c0.217,0,0.399,0.068,0.553,0.206c0.156,0.138,0.234,0.307,0.234,0.508c0,0.191-0.078,0.355-0.234,0.493
		C40.127,9.117,40.094,9.144,40.061,9.168z"/>
	<g>
		<circle fill="#222D33" cx="40.12" cy="18.667" r="1.779"/>
		<path id="path5006" fill="#FFFFFF" d="M40.119,19.257c-0.327,0-0.591-0.263-0.591-0.59s0.264-0.591,0.591-0.591
			c0.326,0,0.591,0.264,0.591,0.591S40.445,19.257,40.119,19.257 M41.48,18.667c0-0.753-0.608-1.362-1.361-1.362
			s-1.36,0.609-1.36,1.362c0,0.752,0.607,1.362,1.36,1.362S41.48,19.419,41.48,18.667"/>
		<circle fill="#222D33" cx="36.03" cy="18.667" r="1.779"/>
		<path id="path5006_1_" fill="#FFFFFF" d="M36.03,19.257c-0.328,0-0.592-0.263-0.592-0.59s0.264-0.591,0.592-0.591
			c0.325,0,0.59,0.264,0.59,0.591S36.355,19.257,36.03,19.257 M37.391,18.667c0-0.753-0.607-1.362-1.362-1.362
			c-0.752,0-1.359,0.609-1.359,1.362c0,0.752,0.606,1.362,1.359,1.362C36.784,20.029,37.391,19.419,37.391,18.667"/>
	</g>
	<text transform="matrix(1 0 0 1 43.125 13.833)"><tspan x="0" y="0" fill="#FFFFFF" font-family="'Lato-Light'" font-size="5.8247">ROADTRIP  </tspan><tspan x="31.027" y="0" fill="#FFFFFF" font-family="'Lato-Regular'" font-size="5.8247">LAB</tspan></text>
	<text transform="matrix(1 0 0 1 45.375 16.6172)" fill="#CECECE" font-family="'Lato-LightItalic'" font-size="2.1412">Putting real time back into a real good time</text>
	<circle fill="#FFFFFF" cx="39.335" cy="6.505" r="0.656"/>
	<circle fill="#FFFFFF" cx="36.914" cy="6.304" r="0.303"/>
	<circle fill="#FFFFFF" cx="38.076" cy="4.134" r="0.959"/>
</g>
</svg>
