<?xml version="1.0" encoding="utf-8"?>
<!-- Generator: Adobe Illustrator 16.0.4, SVG Export Plug-In . SVG Version: 6.00 Build 0)  -->
<!DOCTYPE svg PUBLIC "-//W3C//DTD SVG 1.1//EN" "http://www.w3.org/Graphics/SVG/1.1/DTD/svg11.dtd">
<svg version="1.1" xmlns="http://www.w3.org/2000/svg" xmlns:xlink="http://www.w3.org/1999/xlink" x="0px" y="0px"
	 width="55.188px" height="19.688px" viewBox="31 1.75 55.188 19.688" enable-background="new 31 1.75 55.188 19.688"
	 xml:space="preserve">
<g id="Layer_2" display="none">
	<rect x="31" y="1.75" display="inline" fill="#222D33" width="55.188" height="19.688"/>
</g>
<g id="Layer_1">
	<path fill="#EFD446" d="M40.061,9.168c-0.134,0.088-0.285,0.132-0.456,0.132h-0.052c0,0.01,0,0.022,0,0.037v3.361l3.082,4.06
		c0.205,0.274,0.289,0.577,0.249,0.905c-0.049,0.328-0.21,0.603-0.484,0.824c-0.28,0.221-0.604,0.33-0.972,0.33l-6.693,0.037
		c-0.367,0.005-0.692-0.103-0.971-0.323c-0.279-0.215-0.444-0.49-0.493-0.824c-0.05-0.328,0.029-0.63,0.235-0.904l3.111-4.105V9.337
		c0-0.015,0-0.026,0-0.037h-0.073c-0.172,0-0.323-0.044-0.456-0.132c-0.035-0.024-0.068-0.052-0.104-0.081
		c-0.146-0.138-0.221-0.302-0.221-0.493c0-0.201,0.074-0.371,0.221-0.508c0.157-0.137,0.343-0.206,0.56-0.206h3.06
		c0.217,0,0.399,0.068,0.553,0.206c0.156,0.138,0.234,0.307,0.234,0.508c0,0.191-0.078,0.355-0.234,0.493
		C40.127,9.117,40.094,9.144,40.061,9.168z"/>
	<g>
		<circle fill="#222D33" cx="40.12" cy="18.667" r="1.779"/>
		<path id="path5006" fill="#FFFFFF" d="M40.119,19.257c-0.327,0-0.591-0.263-0.591-0.59s0.264-0.591,0.591-0.591
			c0.326,0,0.591,0.264,0.591,0.591S40.445,19.257,40.119,19.257 M41.48,18.667c0-0.753-0.608-1.362-1.361-1.362
			s-1.36,0.609-1.36,1.362c0,0.752,0.607,1.362,1.36,1.362S41.48,19.419,41.48,18.667"/>
		<circle fill="#222D33" cx="36.03" cy="18.667" r="1.779"/>
		<path id="path5006_1_" fill="#FFFFFF" d="M36.03,19.257c-0.328,0-0.592-0.263-0.592-0.59s0.264-0.591,0.592-0.591
			c0.325,0,0.59,0.264,0.59,0.591S36.355,19.257,36.03,19.257 M37.391,18.667c0-0.753-0.607-1.362-1.362-1.362
			c-0.752,0-1.359,0.609-1.359,1.362c0,0.752,0.606,1.362,1.359,1.362C36.784,20.029,37.391,19.419,37.391,18.667"/>
	</g>
	<g>
		<path fill="#FFFFFF" d="M44.121,11.969v1.864h-0.297V9.712h1.051c0.476,0,0.831,0.092,1.066,0.275
			c0.234,0.184,0.353,0.453,0.353,0.808c0,0.157-0.027,0.301-0.082,0.431c-0.054,0.13-0.133,0.244-0.234,0.342
			c-0.102,0.098-0.225,0.178-0.368,0.242c-0.144,0.063-0.306,0.104-0.486,0.124c0.047,0.029,0.088,0.068,0.125,0.117l1.418,1.782
			h-0.259c-0.031,0-0.058-0.006-0.08-0.018s-0.044-0.031-0.065-0.058l-1.319-1.672c-0.033-0.042-0.068-0.073-0.106-0.09
			c-0.038-0.017-0.097-0.026-0.176-0.026H44.121z M44.121,11.748h0.717c0.182,0,0.346-0.021,0.49-0.065
			c0.145-0.043,0.267-0.106,0.367-0.188c0.1-0.082,0.176-0.179,0.229-0.294c0.053-0.114,0.078-0.244,0.078-0.387
			c0-0.293-0.096-0.511-0.288-0.652s-0.472-0.213-0.839-0.213h-0.754V11.748z"/>
		<path fill="#FFFFFF" d="M50.962,11.771c0,0.318-0.048,0.607-0.143,0.867c-0.096,0.259-0.229,0.48-0.402,0.664
			c-0.173,0.184-0.38,0.326-0.62,0.425c-0.241,0.1-0.508,0.15-0.801,0.15c-0.289,0-0.555-0.05-0.795-0.15
			c-0.241-0.1-0.448-0.242-0.621-0.425c-0.172-0.183-0.307-0.405-0.403-0.664c-0.096-0.259-0.144-0.548-0.144-0.867
			c0-0.316,0.048-0.604,0.144-0.863c0.097-0.259,0.231-0.48,0.403-0.664c0.173-0.184,0.38-0.326,0.621-0.427
			c0.24-0.101,0.506-0.151,0.795-0.151c0.293,0,0.56,0.05,0.801,0.15c0.24,0.1,0.447,0.242,0.62,0.427s0.307,0.406,0.402,0.666
			C50.914,11.167,50.962,11.455,50.962,11.771z M50.653,11.771c0-0.287-0.04-0.545-0.12-0.774c-0.079-0.229-0.191-0.423-0.336-0.583
			s-0.319-0.281-0.522-0.366c-0.204-0.084-0.431-0.126-0.679-0.126c-0.245,0-0.469,0.042-0.672,0.126
			c-0.202,0.084-0.377,0.207-0.523,0.366s-0.261,0.353-0.341,0.583c-0.081,0.229-0.121,0.487-0.121,0.774
			c0,0.29,0.04,0.548,0.121,0.776c0.08,0.228,0.194,0.422,0.341,0.581s0.321,0.28,0.523,0.364c0.203,0.083,0.427,0.125,0.672,0.125
			c0.248,0,0.475-0.042,0.679-0.125c0.203-0.083,0.378-0.205,0.522-0.364s0.257-0.353,0.336-0.581
			C50.613,12.319,50.653,12.061,50.653,11.771z"/>
		<path fill="#FFFFFF" d="M54.945,13.833h-0.229c-0.027,0-0.05-0.007-0.067-0.022s-0.031-0.033-0.041-0.057l-0.486-1.197h-2.023
			l-0.483,1.197c-0.008,0.021-0.021,0.04-0.041,0.055c-0.02,0.016-0.043,0.023-0.07,0.023h-0.227l1.686-4.121h0.298L54.945,13.833z
			 M52.188,12.336h1.847l-0.842-2.082c-0.014-0.033-0.027-0.07-0.041-0.112c-0.014-0.042-0.027-0.086-0.04-0.132
			c-0.014,0.046-0.027,0.091-0.041,0.132c-0.014,0.042-0.027,0.08-0.041,0.115L52.188,12.336z"/>
		<path fill="#FFFFFF" d="M59.067,11.771c0,0.318-0.048,0.605-0.143,0.859s-0.229,0.471-0.402,0.649s-0.379,0.315-0.62,0.411
			c-0.24,0.095-0.508,0.143-0.801,0.143h-1.503V9.712h1.503c0.293,0,0.561,0.048,0.801,0.143c0.241,0.095,0.447,0.232,0.62,0.411
			c0.173,0.179,0.308,0.396,0.402,0.65S59.067,11.455,59.067,11.771z M58.759,11.771c0-0.287-0.04-0.543-0.119-0.769
			c-0.08-0.225-0.192-0.415-0.337-0.571c-0.145-0.155-0.318-0.273-0.522-0.355s-0.43-0.123-0.679-0.123h-1.203v3.638h1.203
			c0.249,0,0.475-0.041,0.679-0.123s0.378-0.2,0.522-0.355s0.257-0.346,0.337-0.571C58.719,12.317,58.759,12.061,58.759,11.771z"/>
		<path fill="#FFFFFF" d="M62.367,9.712v0.253H60.92v3.868h-0.297V9.965h-1.457V9.712H62.367z"/>
		<path fill="#FFFFFF" d="M63.465,11.969v1.864h-0.297V9.712h1.051c0.476,0,0.831,0.092,1.066,0.275
			c0.234,0.184,0.353,0.453,0.353,0.808c0,0.157-0.027,0.301-0.082,0.431c-0.054,0.13-0.133,0.244-0.234,0.342
			c-0.102,0.098-0.225,0.178-0.368,0.242c-0.144,0.063-0.306,0.104-0.486,0.124c0.047,0.029,0.088,0.068,0.125,0.117l1.418,1.782
			h-0.259c-0.031,0-0.058-0.006-0.08-0.018s-0.044-0.031-0.065-0.058l-1.319-1.672c-0.033-0.042-0.068-0.073-0.106-0.09
			c-0.038-0.017-0.097-0.026-0.176-0.026H63.465z M63.465,11.748h0.717c0.182,0,0.346-0.021,0.49-0.065
			c0.145-0.043,0.267-0.106,0.367-0.188c0.1-0.082,0.176-0.179,0.229-0.294c0.053-0.114,0.078-0.244,0.078-0.387
			c0-0.293-0.096-0.511-0.288-0.652s-0.472-0.213-0.839-0.213h-0.754V11.748z"/>
		<path fill="#FFFFFF" d="M67.163,13.833h-0.3V9.712h0.3V13.833z"/>
		<path fill="#FFFFFF" d="M68.882,12.173v1.66h-0.297V9.712h1.062c0.483,0,0.849,0.106,1.094,0.317
			c0.246,0.212,0.368,0.514,0.368,0.906c0,0.181-0.033,0.347-0.101,0.498c-0.066,0.151-0.163,0.282-0.289,0.392
			c-0.127,0.11-0.28,0.195-0.46,0.256c-0.181,0.062-0.385,0.092-0.612,0.092H68.882z M68.882,11.934h0.766
			c0.183,0,0.346-0.025,0.489-0.076c0.144-0.05,0.266-0.12,0.366-0.209c0.1-0.089,0.176-0.195,0.229-0.316
			c0.054-0.121,0.08-0.253,0.08-0.397c0-0.316-0.098-0.56-0.293-0.731c-0.194-0.171-0.485-0.256-0.872-0.256h-0.766V11.934z"/>
		<path fill="#FFFFFF" d="M74.662,13.358h1.806v0.475h-2.37V9.66h0.564V13.358z"/>
		<path fill="#FFFFFF" d="M80.525,13.833h-0.437c-0.051,0-0.092-0.013-0.123-0.038c-0.03-0.025-0.054-0.057-0.069-0.096
			l-0.391-1.008h-1.872l-0.391,1.008c-0.014,0.035-0.037,0.066-0.07,0.093c-0.032,0.027-0.073,0.041-0.122,0.041h-0.437l1.669-4.173
			h0.573L80.525,13.833z M77.791,12.284h1.558l-0.655-1.698c-0.043-0.105-0.084-0.236-0.125-0.394
			c-0.021,0.08-0.042,0.153-0.062,0.22c-0.021,0.067-0.04,0.125-0.06,0.176L77.791,12.284z"/>
		<path fill="#FFFFFF" d="M81.052,13.833V9.66h1.331c0.256,0,0.477,0.025,0.662,0.076s0.338,0.122,0.457,0.215
			c0.12,0.093,0.208,0.208,0.266,0.342c0.057,0.135,0.086,0.287,0.086,0.456c0,0.103-0.017,0.202-0.048,0.297
			c-0.032,0.095-0.081,0.184-0.146,0.265c-0.065,0.082-0.147,0.154-0.245,0.218s-0.213,0.117-0.345,0.157
			c0.305,0.06,0.534,0.17,0.689,0.329s0.233,0.369,0.233,0.629c0,0.177-0.032,0.338-0.098,0.484
			c-0.065,0.146-0.16,0.271-0.285,0.375s-0.278,0.186-0.46,0.243s-0.39,0.086-0.622,0.086H81.052z M81.616,11.529h0.746
			c0.159,0,0.297-0.018,0.413-0.052c0.117-0.035,0.214-0.083,0.29-0.146c0.077-0.062,0.134-0.137,0.171-0.226
			c0.036-0.088,0.055-0.185,0.055-0.29c0-0.245-0.073-0.424-0.221-0.539c-0.148-0.114-0.377-0.172-0.688-0.172h-0.767V11.529z
			 M81.616,11.931v1.453h0.903c0.161,0,0.3-0.018,0.415-0.055c0.115-0.037,0.211-0.089,0.285-0.156
			c0.075-0.067,0.13-0.146,0.165-0.239c0.034-0.092,0.052-0.194,0.052-0.304c0-0.216-0.076-0.386-0.229-0.511
			c-0.152-0.125-0.383-0.188-0.691-0.188H81.616z"/>
	</g>
	<g>
		<path fill="#CECECE" d="M45.725,16.006l-0.074,0.611h-0.106l0.186-1.514h0.364c0.148,0,0.26,0.033,0.334,0.1
			c0.074,0.066,0.111,0.16,0.111,0.281c0,0.077-0.014,0.147-0.04,0.211s-0.063,0.119-0.112,0.165
			c-0.049,0.046-0.107,0.082-0.176,0.107s-0.145,0.039-0.229,0.039H45.725z M45.826,15.188l-0.091,0.734h0.258
			c0.066,0,0.127-0.011,0.181-0.032c0.055-0.021,0.101-0.051,0.139-0.089c0.038-0.038,0.067-0.083,0.088-0.135
			s0.031-0.109,0.031-0.17c0-0.097-0.029-0.173-0.087-0.227c-0.059-0.054-0.146-0.081-0.262-0.081H45.826z"/>
		<path fill="#CECECE" d="M46.855,15.552l-0.08,0.678c-0.005,0.034-0.007,0.065-0.007,0.093c0,0.073,0.014,0.128,0.041,0.167
			c0.027,0.038,0.071,0.057,0.13,0.057c0.04,0,0.079-0.01,0.119-0.029c0.04-0.021,0.079-0.049,0.117-0.087
			c0.037-0.037,0.073-0.082,0.106-0.135c0.034-0.052,0.063-0.111,0.089-0.177l0.068-0.566h0.101l-0.128,1.065h-0.047
			c-0.014,0-0.023-0.003-0.029-0.01c-0.007-0.008-0.01-0.018-0.01-0.029l0.032-0.303c-0.029,0.057-0.062,0.107-0.097,0.151
			c-0.035,0.044-0.072,0.082-0.111,0.112s-0.079,0.054-0.12,0.069c-0.042,0.016-0.083,0.024-0.125,0.024
			c-0.079,0-0.139-0.026-0.178-0.079c-0.04-0.053-0.06-0.127-0.06-0.224c0-0.006,0-0.013,0.001-0.021
			c0-0.007,0.001-0.02,0.003-0.039c0.002-0.018,0.004-0.043,0.008-0.075s0.009-0.076,0.015-0.131
			c0.007-0.055,0.015-0.125,0.024-0.207c0.01-0.083,0.021-0.184,0.036-0.303H46.855z"/>
		<path fill="#CECECE" d="M47.828,16.439c0-0.004,0-0.01,0-0.016c0.001-0.006,0.001-0.016,0.003-0.029
			c0.001-0.013,0.003-0.03,0.005-0.05c0.003-0.021,0.006-0.046,0.009-0.078l0.073-0.605h-0.141c-0.014,0-0.021-0.007-0.021-0.021
			l0.006-0.044l0.168-0.013L48,15.204c0.002-0.007,0.005-0.012,0.01-0.017c0.005-0.005,0.012-0.008,0.019-0.008h0.049l-0.05,0.407
			h0.308l-0.008,0.076h-0.309l-0.074,0.601c-0.003,0.029-0.006,0.053-0.008,0.072c-0.003,0.018-0.004,0.034-0.006,0.045
			c-0.001,0.012-0.002,0.021-0.003,0.026c0,0.006,0,0.01,0,0.013c0,0.046,0.011,0.08,0.032,0.101
			c0.022,0.021,0.05,0.031,0.084,0.031c0.023,0,0.045-0.004,0.062-0.012c0.019-0.008,0.034-0.016,0.048-0.025
			c0.014-0.008,0.024-0.017,0.033-0.024s0.016-0.011,0.02-0.011s0.008,0.001,0.01,0.002c0.002,0.002,0.004,0.005,0.006,0.008
			l0.02,0.045c-0.028,0.03-0.063,0.055-0.104,0.073c-0.041,0.018-0.082,0.027-0.122,0.027c-0.059,0-0.104-0.016-0.138-0.049
			C47.846,16.555,47.829,16.506,47.828,16.439z"/>
		<path fill="#CECECE" d="M48.532,16.439c0-0.004,0-0.01,0-0.016c0.001-0.006,0.001-0.016,0.003-0.029
			c0.001-0.013,0.003-0.03,0.005-0.05c0.003-0.021,0.006-0.046,0.009-0.078l0.073-0.605h-0.141c-0.014,0-0.021-0.007-0.021-0.021
			l0.006-0.044l0.168-0.013l0.07-0.381c0.002-0.007,0.005-0.012,0.01-0.017c0.005-0.005,0.012-0.008,0.019-0.008h0.049l-0.05,0.407
			h0.308l-0.008,0.076h-0.309l-0.074,0.601c-0.003,0.029-0.006,0.053-0.008,0.072c-0.003,0.018-0.004,0.034-0.006,0.045
			c-0.001,0.012-0.002,0.021-0.003,0.026c0,0.006,0,0.01,0,0.013c0,0.046,0.011,0.08,0.032,0.101
			c0.022,0.021,0.05,0.031,0.084,0.031c0.023,0,0.045-0.004,0.062-0.012c0.019-0.008,0.034-0.016,0.048-0.025
			c0.014-0.008,0.024-0.017,0.033-0.024s0.016-0.011,0.02-0.011s0.008,0.001,0.01,0.002c0.002,0.002,0.004,0.005,0.006,0.008
			l0.02,0.045c-0.028,0.03-0.063,0.055-0.104,0.073c-0.041,0.018-0.082,0.027-0.122,0.027c-0.059,0-0.104-0.016-0.138-0.049
			C48.55,16.555,48.533,16.506,48.532,16.439z"/>
		<path fill="#CECECE" d="M49.406,15.552l-0.129,1.065h-0.1l0.129-1.065H49.406z M49.484,15.185c0,0.013-0.002,0.025-0.007,0.036
			c-0.006,0.011-0.013,0.021-0.021,0.029c-0.009,0.009-0.019,0.016-0.029,0.021c-0.012,0.005-0.022,0.007-0.034,0.007
			s-0.023-0.002-0.034-0.007s-0.021-0.012-0.028-0.021c-0.009-0.008-0.015-0.019-0.02-0.029c-0.006-0.011-0.008-0.023-0.008-0.036
			c0-0.013,0.002-0.025,0.008-0.036c0.005-0.012,0.011-0.021,0.02-0.031c0.008-0.009,0.018-0.016,0.028-0.021
			c0.011-0.005,0.022-0.008,0.034-0.008s0.022,0.002,0.034,0.008c0.011,0.005,0.021,0.012,0.029,0.02
			c0.008,0.009,0.015,0.019,0.021,0.031C49.482,15.16,49.484,15.172,49.484,15.185z"/>
		<path fill="#CECECE" d="M49.637,16.617l0.129-1.068h0.046c0.024,0,0.036,0.013,0.036,0.039l-0.031,0.308
			c0.029-0.056,0.062-0.107,0.097-0.151c0.036-0.044,0.073-0.083,0.112-0.113c0.039-0.031,0.079-0.055,0.121-0.071
			c0.041-0.016,0.083-0.024,0.125-0.024c0.079,0,0.139,0.026,0.179,0.078c0.04,0.052,0.061,0.126,0.061,0.224
			c0,0.006-0.001,0.014-0.001,0.022s-0.001,0.021-0.003,0.039c-0.002,0.018-0.005,0.043-0.008,0.075
			c-0.004,0.033-0.009,0.077-0.016,0.132c-0.006,0.055-0.015,0.125-0.023,0.208c-0.01,0.083-0.022,0.185-0.036,0.303h-0.101
			l0.08-0.681c0.004-0.033,0.007-0.064,0.007-0.093c0-0.072-0.015-0.127-0.042-0.165c-0.027-0.038-0.07-0.057-0.13-0.057
			c-0.04,0-0.08,0.01-0.121,0.03c-0.04,0.021-0.08,0.049-0.118,0.087s-0.074,0.083-0.107,0.136s-0.063,0.113-0.089,0.179
			l-0.065,0.563H49.637z"/>
		<path fill="#CECECE" d="M51.448,15.83c0,0.04-0.006,0.075-0.016,0.107c-0.009,0.032-0.021,0.062-0.035,0.088
			c-0.015,0.027-0.03,0.052-0.047,0.075c-0.017,0.023-0.032,0.046-0.047,0.068c-0.014,0.022-0.025,0.044-0.035,0.067
			c-0.009,0.023-0.014,0.047-0.014,0.073c0,0.021,0.004,0.042,0.013,0.06s0.02,0.036,0.031,0.053
			c0.013,0.017,0.026,0.034,0.042,0.052c0.015,0.018,0.028,0.035,0.041,0.055s0.022,0.041,0.031,0.063s0.013,0.048,0.013,0.076
			c0,0.045-0.011,0.089-0.034,0.13c-0.022,0.041-0.055,0.078-0.096,0.111c-0.042,0.031-0.092,0.057-0.149,0.076
			c-0.059,0.02-0.123,0.029-0.194,0.029c-0.057,0-0.108-0.006-0.155-0.018s-0.087-0.027-0.121-0.049
			c-0.033-0.021-0.06-0.049-0.078-0.08s-0.028-0.066-0.028-0.107c0-0.051,0.014-0.096,0.04-0.135
			c0.027-0.04,0.063-0.074,0.109-0.101c0.046-0.027,0.1-0.048,0.161-0.062c0.061-0.014,0.126-0.021,0.196-0.021
			c0.024,0,0.049,0.001,0.072,0.003c0.024,0.001,0.049,0.004,0.074,0.008c-0.012-0.017-0.022-0.034-0.03-0.053
			c-0.009-0.019-0.013-0.04-0.013-0.062c0-0.025,0.005-0.05,0.013-0.076c0.009-0.026,0.025-0.057,0.05-0.093
			c-0.029,0.02-0.061,0.035-0.093,0.046s-0.068,0.016-0.106,0.016c-0.041,0-0.079-0.006-0.113-0.019
			c-0.035-0.013-0.065-0.032-0.091-0.058s-0.045-0.056-0.06-0.093c-0.014-0.037-0.021-0.08-0.021-0.128
			c0-0.049,0.009-0.098,0.026-0.146c0.018-0.047,0.043-0.089,0.076-0.126s0.074-0.067,0.122-0.089
			c0.049-0.022,0.104-0.034,0.166-0.034c0.037,0,0.071,0.004,0.104,0.013s0.061,0.022,0.085,0.04h0.278l-0.004,0.034
			c-0.001,0.007-0.003,0.014-0.008,0.019s-0.012,0.009-0.022,0.01l-0.173,0.014c0.013,0.022,0.022,0.047,0.029,0.074
			C51.445,15.768,51.448,15.798,51.448,15.83z M51.333,16.674c0-0.035-0.006-0.065-0.018-0.09c-0.011-0.025-0.025-0.049-0.041-0.068
			l0.001,0.002c-0.035-0.006-0.068-0.01-0.1-0.012s-0.062-0.003-0.091-0.003c-0.071,0-0.133,0.007-0.185,0.021
			c-0.052,0.013-0.096,0.031-0.13,0.053c-0.035,0.023-0.061,0.049-0.078,0.079s-0.026,0.062-0.026,0.095
			c0,0.029,0.007,0.057,0.021,0.08c0.015,0.025,0.034,0.045,0.06,0.061c0.026,0.016,0.057,0.029,0.094,0.037
			c0.036,0.008,0.076,0.014,0.12,0.014c0.056,0,0.106-0.008,0.152-0.023s0.085-0.035,0.117-0.061
			c0.032-0.023,0.058-0.053,0.075-0.084C51.323,16.74,51.332,16.707,51.333,16.674z M51.066,16.163c0.046,0,0.087-0.01,0.123-0.029
			c0.035-0.02,0.066-0.044,0.091-0.076c0.025-0.031,0.044-0.066,0.057-0.106c0.014-0.04,0.02-0.079,0.02-0.119
			c0-0.074-0.02-0.13-0.059-0.167c-0.039-0.038-0.092-0.056-0.158-0.056c-0.046,0-0.087,0.009-0.122,0.027
			c-0.036,0.018-0.066,0.042-0.091,0.072c-0.024,0.03-0.043,0.064-0.057,0.103c-0.013,0.039-0.019,0.079-0.019,0.12
			c0,0.076,0.019,0.133,0.058,0.172C50.947,16.143,51,16.163,51.066,16.163z"/>
		<path fill="#CECECE" d="M52.09,16.617l0.129-1.068h0.046c0.024,0,0.037,0.013,0.037,0.039l-0.031,0.317
			c0.049-0.116,0.104-0.206,0.167-0.27c0.062-0.063,0.129-0.095,0.199-0.095c0.029,0,0.06,0.006,0.09,0.019l-0.018,0.095
			c-0.033-0.012-0.063-0.019-0.093-0.019c-0.076,0-0.145,0.038-0.206,0.113c-0.061,0.075-0.113,0.184-0.156,0.326l-0.064,0.542
			H52.09z"/>
		<path fill="#CECECE" d="M53.562,15.756c0,0.029-0.004,0.057-0.012,0.083s-0.022,0.051-0.042,0.075
			c-0.021,0.024-0.047,0.046-0.081,0.067c-0.035,0.021-0.078,0.04-0.132,0.058s-0.118,0.033-0.192,0.047
			c-0.074,0.014-0.161,0.026-0.261,0.037c-0.001,0.015-0.003,0.03-0.003,0.044c-0.001,0.015-0.001,0.029-0.001,0.043
			c0,0.106,0.023,0.189,0.072,0.25c0.048,0.059,0.12,0.09,0.218,0.09c0.037,0,0.071-0.005,0.102-0.013
			c0.03-0.009,0.058-0.019,0.082-0.032c0.023-0.012,0.045-0.026,0.062-0.04c0.019-0.015,0.035-0.028,0.049-0.041
			c0.015-0.013,0.026-0.023,0.037-0.031c0.011-0.008,0.02-0.013,0.028-0.013s0.017,0.004,0.022,0.011l0.023,0.028
			c-0.035,0.037-0.068,0.069-0.102,0.096c-0.033,0.026-0.067,0.049-0.101,0.065c-0.034,0.018-0.069,0.03-0.105,0.038
			c-0.037,0.008-0.076,0.013-0.117,0.013c-0.06,0-0.112-0.011-0.158-0.03s-0.084-0.047-0.116-0.083
			c-0.031-0.036-0.055-0.08-0.071-0.131s-0.024-0.11-0.024-0.174c0-0.053,0.005-0.107,0.016-0.162s0.026-0.106,0.048-0.156
			s0.047-0.097,0.078-0.14s0.066-0.082,0.106-0.114c0.04-0.032,0.084-0.057,0.133-0.076s0.101-0.028,0.157-0.028
			c0.053,0,0.097,0.007,0.133,0.022c0.035,0.015,0.064,0.033,0.087,0.054c0.022,0.022,0.039,0.045,0.049,0.071
			C53.558,15.71,53.562,15.734,53.562,15.756z M53.273,15.612c-0.058,0-0.109,0.012-0.155,0.037
			c-0.046,0.024-0.087,0.057-0.122,0.097c-0.035,0.041-0.064,0.087-0.089,0.14c-0.023,0.053-0.041,0.109-0.053,0.167
			c0.091-0.01,0.169-0.021,0.234-0.035s0.121-0.027,0.167-0.042s0.083-0.031,0.111-0.048c0.027-0.017,0.05-0.035,0.065-0.053
			c0.016-0.018,0.026-0.037,0.031-0.056c0.006-0.019,0.009-0.039,0.009-0.06c0-0.015-0.004-0.031-0.011-0.049
			s-0.018-0.034-0.033-0.048s-0.036-0.026-0.062-0.036S53.311,15.612,53.273,15.612z"/>
		<path fill="#CECECE" d="M54.444,16.617h-0.05c-0.014,0-0.022-0.003-0.028-0.01c-0.005-0.006-0.008-0.014-0.008-0.023l0.035-0.334
			c-0.027,0.057-0.057,0.109-0.089,0.156c-0.033,0.047-0.067,0.087-0.104,0.12c-0.036,0.033-0.075,0.061-0.116,0.078
			c-0.04,0.019-0.082,0.028-0.126,0.028c-0.045,0-0.084-0.009-0.118-0.026c-0.033-0.018-0.062-0.043-0.084-0.074
			c-0.022-0.032-0.039-0.071-0.051-0.117c-0.011-0.045-0.017-0.097-0.017-0.154c0-0.062,0.008-0.123,0.023-0.183
			s0.038-0.116,0.066-0.17c0.029-0.053,0.063-0.103,0.104-0.147s0.084-0.084,0.133-0.117c0.048-0.033,0.1-0.059,0.154-0.077
			s0.111-0.028,0.17-0.028c0.043,0,0.083,0.004,0.12,0.011s0.074,0.021,0.11,0.039L54.444,16.617z M53.991,16.547
			c0.041,0,0.081-0.012,0.12-0.034c0.04-0.023,0.077-0.055,0.113-0.097c0.036-0.042,0.069-0.092,0.102-0.151
			c0.031-0.059,0.06-0.124,0.085-0.196l0.054-0.434c-0.043-0.014-0.088-0.021-0.138-0.021c-0.048,0-0.094,0.008-0.139,0.024
			s-0.088,0.038-0.127,0.067c-0.04,0.028-0.076,0.062-0.109,0.102c-0.033,0.04-0.062,0.083-0.086,0.129
			c-0.024,0.047-0.043,0.096-0.057,0.148c-0.013,0.052-0.02,0.105-0.02,0.16c0,0.096,0.017,0.17,0.049,0.223
			S53.922,16.547,53.991,16.547z"/>
		<path fill="#CECECE" d="M54.798,16.617l0.188-1.557h0.1l-0.189,1.557H54.798z"/>
		<path fill="#CECECE" d="M55.753,16.439c0-0.004,0-0.01,0-0.016c0.001-0.006,0.001-0.016,0.003-0.029
			c0.001-0.013,0.003-0.03,0.005-0.05c0.003-0.021,0.006-0.046,0.009-0.078l0.073-0.605h-0.141c-0.014,0-0.021-0.007-0.021-0.021
			l0.006-0.044l0.168-0.013l0.07-0.381c0.002-0.007,0.005-0.012,0.01-0.017c0.005-0.005,0.012-0.008,0.019-0.008h0.049l-0.05,0.407
			h0.308l-0.008,0.076h-0.309l-0.074,0.601c-0.003,0.029-0.006,0.053-0.008,0.072c-0.003,0.018-0.004,0.034-0.006,0.045
			c-0.001,0.012-0.002,0.021-0.003,0.026c0,0.006,0,0.01,0,0.013c0,0.046,0.011,0.08,0.032,0.101
			c0.022,0.021,0.05,0.031,0.084,0.031c0.023,0,0.045-0.004,0.062-0.012c0.019-0.008,0.034-0.016,0.048-0.025
			c0.014-0.008,0.024-0.017,0.033-0.024s0.016-0.011,0.02-0.011s0.008,0.001,0.01,0.002c0.002,0.002,0.004,0.005,0.006,0.008
			l0.02,0.045c-0.028,0.03-0.063,0.055-0.104,0.073c-0.041,0.018-0.082,0.027-0.122,0.027c-0.059,0-0.104-0.016-0.138-0.049
			C55.771,16.555,55.754,16.506,55.753,16.439z"/>
		<path fill="#CECECE" d="M56.628,15.552l-0.129,1.065h-0.1l0.129-1.065H56.628z M56.706,15.185c0,0.013-0.002,0.025-0.007,0.036
			c-0.006,0.011-0.013,0.021-0.021,0.029c-0.009,0.009-0.019,0.016-0.029,0.021c-0.012,0.005-0.022,0.007-0.034,0.007
			s-0.023-0.002-0.034-0.007s-0.021-0.012-0.028-0.021c-0.009-0.008-0.015-0.019-0.02-0.029c-0.006-0.011-0.008-0.023-0.008-0.036
			c0-0.013,0.002-0.025,0.008-0.036c0.005-0.012,0.011-0.021,0.02-0.031c0.008-0.009,0.018-0.016,0.028-0.021
			c0.011-0.005,0.022-0.008,0.034-0.008s0.022,0.002,0.034,0.008c0.011,0.005,0.021,0.012,0.029,0.02
			c0.008,0.009,0.015,0.019,0.021,0.031C56.704,15.16,56.706,15.172,56.706,15.185z"/>
		<path fill="#CECECE" d="M56.857,16.617l0.129-1.068h0.046c0.024,0,0.037,0.013,0.037,0.039l-0.03,0.297
			c0.056-0.11,0.12-0.196,0.193-0.257c0.072-0.061,0.149-0.091,0.229-0.091c0.072,0,0.123,0.022,0.153,0.067
			s0.045,0.109,0.045,0.194c0,0.024-0.001,0.05-0.003,0.078c0.027-0.057,0.059-0.107,0.092-0.149s0.067-0.078,0.104-0.106
			c0.037-0.028,0.074-0.049,0.113-0.063c0.038-0.014,0.076-0.021,0.114-0.021c0.076,0,0.132,0.024,0.165,0.072
			c0.033,0.048,0.05,0.117,0.05,0.206c0,0.007,0,0.015,0,0.024s-0.002,0.023-0.003,0.042c-0.002,0.019-0.005,0.045-0.009,0.08
			c-0.003,0.034-0.008,0.079-0.015,0.136s-0.015,0.128-0.024,0.213c-0.01,0.084-0.022,0.187-0.036,0.307h-0.1l0.08-0.681
			c0.003-0.022,0.005-0.043,0.006-0.062c0.002-0.02,0.003-0.039,0.003-0.057c0-0.064-0.012-0.113-0.033-0.146
			c-0.022-0.033-0.062-0.05-0.116-0.05c-0.035,0-0.07,0.008-0.106,0.024s-0.071,0.04-0.105,0.072
			c-0.035,0.032-0.067,0.073-0.099,0.121c-0.031,0.049-0.06,0.106-0.084,0.171l-0.072,0.607h-0.1l0.08-0.681
			c0.007-0.049,0.01-0.093,0.01-0.132c0-0.06-0.01-0.105-0.03-0.137c-0.021-0.031-0.058-0.046-0.11-0.046
			c-0.082,0-0.157,0.037-0.226,0.111c-0.069,0.074-0.13,0.179-0.182,0.315l-0.067,0.57H56.857z"/>
		<path fill="#CECECE" d="M59.315,15.756c0,0.029-0.004,0.057-0.012,0.083s-0.022,0.051-0.042,0.075
			c-0.021,0.024-0.047,0.046-0.081,0.067c-0.035,0.021-0.078,0.04-0.132,0.058s-0.118,0.033-0.192,0.047
			c-0.074,0.014-0.161,0.026-0.261,0.037c-0.001,0.015-0.003,0.03-0.003,0.044c-0.001,0.015-0.001,0.029-0.001,0.043
			c0,0.106,0.023,0.189,0.072,0.25c0.048,0.059,0.12,0.09,0.218,0.09c0.037,0,0.071-0.005,0.102-0.013
			c0.03-0.009,0.058-0.019,0.082-0.032c0.023-0.012,0.045-0.026,0.062-0.04c0.019-0.015,0.035-0.028,0.049-0.041
			c0.015-0.013,0.026-0.023,0.037-0.031c0.011-0.008,0.02-0.013,0.028-0.013s0.017,0.004,0.022,0.011l0.023,0.028
			c-0.035,0.037-0.068,0.069-0.102,0.096c-0.033,0.026-0.067,0.049-0.101,0.065c-0.034,0.018-0.069,0.03-0.105,0.038
			c-0.037,0.008-0.076,0.013-0.117,0.013c-0.06,0-0.112-0.011-0.158-0.03s-0.084-0.047-0.116-0.083
			c-0.031-0.036-0.055-0.08-0.071-0.131s-0.024-0.11-0.024-0.174c0-0.053,0.005-0.107,0.016-0.162s0.026-0.106,0.048-0.156
			s0.047-0.097,0.078-0.14s0.066-0.082,0.106-0.114c0.04-0.032,0.084-0.057,0.133-0.076s0.101-0.028,0.157-0.028
			c0.053,0,0.097,0.007,0.133,0.022c0.035,0.015,0.064,0.033,0.087,0.054c0.022,0.022,0.039,0.045,0.049,0.071
			C59.311,15.71,59.315,15.734,59.315,15.756z M59.026,15.612c-0.058,0-0.109,0.012-0.155,0.037
			c-0.046,0.024-0.087,0.057-0.122,0.097c-0.035,0.041-0.064,0.087-0.089,0.14c-0.023,0.053-0.041,0.109-0.053,0.167
			c0.091-0.01,0.169-0.021,0.234-0.035s0.121-0.027,0.167-0.042s0.083-0.031,0.111-0.048c0.027-0.017,0.05-0.035,0.065-0.053
			c0.016-0.018,0.026-0.037,0.031-0.056c0.006-0.019,0.009-0.039,0.009-0.06c0-0.015-0.004-0.031-0.011-0.049
			s-0.018-0.034-0.033-0.048s-0.036-0.026-0.062-0.036S59.063,15.612,59.026,15.612z"/>
		<path fill="#CECECE" d="M59.898,16.617l0.188-1.557h0.1l-0.104,0.852c0.028-0.056,0.06-0.107,0.094-0.154
			c0.034-0.046,0.07-0.085,0.107-0.118c0.038-0.033,0.078-0.058,0.12-0.077c0.041-0.018,0.084-0.027,0.127-0.027
			c0.046,0,0.087,0.009,0.122,0.026c0.034,0.018,0.063,0.043,0.087,0.076c0.024,0.032,0.042,0.072,0.054,0.118
			c0.013,0.046,0.019,0.098,0.019,0.155c0,0.055-0.006,0.111-0.018,0.167c-0.011,0.057-0.027,0.112-0.048,0.165
			c-0.021,0.053-0.047,0.103-0.077,0.15c-0.03,0.047-0.065,0.088-0.104,0.123c-0.039,0.035-0.081,0.062-0.127,0.084
			c-0.046,0.02-0.095,0.03-0.146,0.03c-0.061,0-0.116-0.015-0.166-0.042s-0.09-0.068-0.119-0.122l-0.021,0.116
			c-0.002,0.012-0.006,0.021-0.011,0.025c-0.005,0.006-0.014,0.008-0.027,0.008H59.898z M60.497,15.619
			c-0.041,0-0.082,0.012-0.123,0.035c-0.041,0.022-0.08,0.055-0.119,0.096c-0.038,0.042-0.073,0.091-0.106,0.15
			s-0.062,0.124-0.089,0.195l-0.037,0.304c0.015,0.028,0.032,0.051,0.052,0.071c0.02,0.02,0.041,0.036,0.063,0.048
			c0.022,0.012,0.046,0.021,0.069,0.025c0.024,0.006,0.049,0.008,0.073,0.008c0.045,0,0.087-0.009,0.126-0.027
			c0.039-0.018,0.074-0.042,0.106-0.074c0.031-0.032,0.06-0.068,0.084-0.11c0.024-0.042,0.046-0.086,0.062-0.132
			s0.029-0.094,0.038-0.143c0.009-0.049,0.014-0.097,0.014-0.143c0-0.096-0.019-0.17-0.055-0.223S60.566,15.619,60.497,15.619z"/>
		<path fill="#CECECE" d="M61.7,16.617h-0.05c-0.014,0-0.022-0.003-0.028-0.01c-0.005-0.006-0.008-0.014-0.008-0.023l0.035-0.334
			c-0.027,0.057-0.057,0.109-0.089,0.156c-0.033,0.047-0.067,0.087-0.104,0.12c-0.036,0.033-0.075,0.061-0.116,0.078
			c-0.04,0.019-0.082,0.028-0.126,0.028c-0.045,0-0.084-0.009-0.118-0.026c-0.033-0.018-0.062-0.043-0.084-0.074
			c-0.022-0.032-0.039-0.071-0.051-0.117c-0.011-0.045-0.017-0.097-0.017-0.154c0-0.062,0.008-0.123,0.023-0.183
			s0.038-0.116,0.066-0.17c0.029-0.053,0.063-0.103,0.104-0.147s0.084-0.084,0.133-0.117c0.048-0.033,0.1-0.059,0.154-0.077
			s0.111-0.028,0.17-0.028c0.043,0,0.083,0.004,0.12,0.011s0.074,0.021,0.11,0.039L61.7,16.617z M61.247,16.547
			c0.041,0,0.081-0.012,0.12-0.034c0.04-0.023,0.077-0.055,0.113-0.097c0.036-0.042,0.069-0.092,0.102-0.151
			c0.031-0.059,0.06-0.124,0.085-0.196l0.054-0.434c-0.043-0.014-0.088-0.021-0.138-0.021c-0.048,0-0.094,0.008-0.139,0.024
			s-0.088,0.038-0.127,0.067c-0.04,0.028-0.076,0.062-0.109,0.102c-0.033,0.04-0.062,0.083-0.086,0.129
			c-0.024,0.047-0.043,0.096-0.057,0.148c-0.013,0.052-0.02,0.105-0.02,0.16c0,0.096,0.017,0.17,0.049,0.223
			S61.178,16.547,61.247,16.547z"/>
		<path fill="#CECECE" d="M62.675,16.527c-0.034,0.026-0.067,0.048-0.1,0.063c-0.033,0.016-0.065,0.026-0.1,0.032
			c-0.033,0.006-0.069,0.009-0.106,0.009c-0.062,0-0.115-0.011-0.16-0.032c-0.046-0.021-0.083-0.051-0.113-0.088
			c-0.03-0.038-0.053-0.083-0.067-0.135c-0.015-0.052-0.022-0.109-0.022-0.17c0-0.056,0.006-0.112,0.018-0.167
			s0.028-0.108,0.051-0.158c0.022-0.05,0.049-0.096,0.08-0.138c0.031-0.042,0.067-0.079,0.106-0.109s0.082-0.055,0.128-0.072
			s0.095-0.026,0.147-0.026c0.034,0,0.066,0.003,0.095,0.01c0.027,0.007,0.054,0.017,0.077,0.029s0.045,0.028,0.064,0.046
			c0.02,0.018,0.037,0.038,0.054,0.061l-0.03,0.035c-0.007,0.008-0.014,0.012-0.022,0.012c-0.007,0-0.016-0.006-0.026-0.017
			c-0.01-0.011-0.024-0.024-0.042-0.037s-0.04-0.025-0.067-0.037c-0.028-0.012-0.063-0.017-0.105-0.017
			c-0.06,0-0.115,0.016-0.167,0.048s-0.097,0.075-0.135,0.129c-0.039,0.054-0.068,0.117-0.09,0.188
			c-0.022,0.071-0.033,0.145-0.033,0.222c0,0.049,0.006,0.095,0.017,0.137s0.028,0.079,0.052,0.109
			c0.022,0.03,0.052,0.055,0.087,0.071s0.076,0.026,0.124,0.026c0.038,0,0.072-0.005,0.102-0.013c0.03-0.009,0.057-0.019,0.08-0.03
			c0.023-0.013,0.044-0.026,0.062-0.041c0.017-0.015,0.032-0.028,0.046-0.04s0.025-0.022,0.035-0.031s0.019-0.012,0.026-0.012
			s0.015,0.003,0.022,0.011l0.022,0.028C62.744,16.465,62.708,16.5,62.675,16.527z"/>
		<path fill="#CECECE" d="M63.247,15.06l-0.117,0.95h0.04c0.013,0,0.022-0.002,0.03-0.005c0.009-0.003,0.018-0.01,0.028-0.02
			l0.441-0.406c0.008-0.008,0.017-0.014,0.024-0.019s0.018-0.008,0.03-0.008h0.087l-0.486,0.447
			c-0.008,0.007-0.016,0.014-0.022,0.02c-0.007,0.006-0.014,0.011-0.021,0.016c0.01,0.006,0.018,0.013,0.024,0.021
			c0.006,0.008,0.013,0.016,0.02,0.025l0.39,0.537h-0.086c-0.01,0-0.019-0.002-0.024-0.005c-0.007-0.003-0.013-0.01-0.02-0.019
			l-0.354-0.48c-0.01-0.013-0.02-0.021-0.028-0.026c-0.01-0.005-0.023-0.007-0.043-0.007h-0.039l-0.065,0.537h-0.099l0.19-1.557
			H63.247z"/>
		<path fill="#CECECE" d="M64.572,15.552l-0.129,1.065h-0.1l0.129-1.065H64.572z M64.65,15.185c0,0.013-0.002,0.025-0.007,0.036
			c-0.006,0.011-0.013,0.021-0.021,0.029c-0.009,0.009-0.019,0.016-0.029,0.021c-0.012,0.005-0.022,0.007-0.034,0.007
			s-0.023-0.002-0.034-0.007s-0.021-0.012-0.028-0.021c-0.009-0.008-0.015-0.019-0.02-0.029c-0.006-0.011-0.008-0.023-0.008-0.036
			c0-0.013,0.002-0.025,0.008-0.036c0.005-0.012,0.011-0.021,0.02-0.031c0.008-0.009,0.018-0.016,0.028-0.021
			c0.011-0.005,0.022-0.008,0.034-0.008s0.022,0.002,0.034,0.008c0.011,0.005,0.021,0.012,0.029,0.02
			c0.008,0.009,0.015,0.019,0.021,0.031C64.648,15.16,64.65,15.172,64.65,15.185z"/>
		<path fill="#CECECE" d="M64.803,16.617l0.129-1.068h0.046c0.024,0,0.036,0.013,0.036,0.039l-0.031,0.308
			c0.029-0.056,0.062-0.107,0.097-0.151c0.036-0.044,0.073-0.083,0.112-0.113c0.039-0.031,0.079-0.055,0.121-0.071
			c0.041-0.016,0.083-0.024,0.125-0.024c0.079,0,0.139,0.026,0.179,0.078c0.04,0.052,0.061,0.126,0.061,0.224
			c0,0.006-0.001,0.014-0.001,0.022s-0.001,0.021-0.003,0.039c-0.002,0.018-0.005,0.043-0.008,0.075
			c-0.004,0.033-0.009,0.077-0.016,0.132c-0.006,0.055-0.015,0.125-0.023,0.208c-0.01,0.083-0.022,0.185-0.036,0.303h-0.101
			l0.08-0.681c0.004-0.033,0.007-0.064,0.007-0.093c0-0.072-0.015-0.127-0.042-0.165c-0.027-0.038-0.07-0.057-0.13-0.057
			c-0.04,0-0.08,0.01-0.121,0.03c-0.04,0.021-0.08,0.049-0.118,0.087s-0.074,0.083-0.107,0.136s-0.063,0.113-0.089,0.179
			l-0.065,0.563H64.803z"/>
		<path fill="#CECECE" d="M65.985,16.439c0-0.004,0-0.01,0-0.016c0.001-0.006,0.001-0.016,0.003-0.029
			c0.001-0.013,0.003-0.03,0.005-0.05c0.003-0.021,0.006-0.046,0.009-0.078l0.073-0.605h-0.141c-0.014,0-0.021-0.007-0.021-0.021
			l0.006-0.044l0.168-0.013l0.07-0.381c0.002-0.007,0.005-0.012,0.01-0.017c0.005-0.005,0.012-0.008,0.019-0.008h0.049l-0.05,0.407
			h0.308l-0.008,0.076h-0.309l-0.074,0.601c-0.003,0.029-0.006,0.053-0.008,0.072c-0.003,0.018-0.004,0.034-0.006,0.045
			c-0.001,0.012-0.002,0.021-0.003,0.026c0,0.006,0,0.01,0,0.013c0,0.046,0.011,0.08,0.032,0.101
			c0.022,0.021,0.05,0.031,0.084,0.031c0.023,0,0.045-0.004,0.062-0.012c0.019-0.008,0.034-0.016,0.048-0.025
			c0.014-0.008,0.024-0.017,0.033-0.024s0.016-0.011,0.02-0.011s0.008,0.001,0.01,0.002c0.002,0.002,0.004,0.005,0.006,0.008
			l0.02,0.045c-0.028,0.03-0.063,0.055-0.104,0.073c-0.041,0.018-0.082,0.027-0.122,0.027c-0.059,0-0.104-0.016-0.138-0.049
			C66.003,16.555,65.986,16.506,65.985,16.439z"/>
		<path fill="#CECECE" d="M66.958,16.632c-0.057,0-0.109-0.011-0.155-0.03c-0.047-0.02-0.087-0.049-0.12-0.086
			c-0.033-0.039-0.06-0.084-0.077-0.138c-0.019-0.054-0.027-0.115-0.027-0.184c0-0.086,0.013-0.169,0.038-0.249
			c0.026-0.08,0.062-0.15,0.109-0.21c0.046-0.061,0.102-0.109,0.166-0.145s0.135-0.054,0.212-0.054c0.058,0,0.109,0.01,0.156,0.031
			c0.046,0.02,0.086,0.049,0.119,0.086c0.033,0.038,0.06,0.083,0.077,0.138c0.019,0.054,0.027,0.115,0.027,0.182
			c0,0.086-0.013,0.169-0.039,0.249c-0.025,0.079-0.062,0.149-0.108,0.21s-0.102,0.11-0.166,0.146S67.035,16.632,66.958,16.632z
			 M66.967,16.551c0.062,0,0.118-0.016,0.17-0.049c0.051-0.032,0.095-0.075,0.131-0.129s0.064-0.116,0.084-0.185
			c0.02-0.07,0.029-0.141,0.029-0.215c0-0.114-0.025-0.202-0.076-0.264c-0.051-0.062-0.121-0.093-0.211-0.093
			c-0.041,0-0.08,0.007-0.116,0.022c-0.037,0.015-0.07,0.035-0.101,0.062c-0.031,0.026-0.059,0.058-0.083,0.094
			c-0.024,0.036-0.046,0.075-0.062,0.118s-0.029,0.088-0.038,0.136s-0.014,0.097-0.014,0.147c0,0.113,0.025,0.201,0.075,0.264
			C66.806,16.52,66.876,16.551,66.967,16.551z"/>
		<path fill="#CECECE" d="M68.794,16.617h-0.05c-0.014,0-0.022-0.003-0.028-0.01c-0.005-0.006-0.008-0.014-0.008-0.023l0.035-0.334
			c-0.027,0.057-0.057,0.109-0.089,0.156c-0.033,0.047-0.067,0.087-0.104,0.12c-0.036,0.033-0.075,0.061-0.116,0.078
			c-0.04,0.019-0.082,0.028-0.126,0.028c-0.045,0-0.084-0.009-0.118-0.026c-0.033-0.018-0.062-0.043-0.084-0.074
			c-0.022-0.032-0.039-0.071-0.051-0.117c-0.011-0.045-0.017-0.097-0.017-0.154c0-0.062,0.008-0.123,0.023-0.183
			s0.038-0.116,0.066-0.17c0.029-0.053,0.063-0.103,0.104-0.147s0.084-0.084,0.133-0.117c0.048-0.033,0.1-0.059,0.154-0.077
			s0.111-0.028,0.17-0.028c0.043,0,0.083,0.004,0.12,0.011s0.074,0.021,0.11,0.039L68.794,16.617z M68.341,16.547
			c0.041,0,0.081-0.012,0.12-0.034c0.04-0.023,0.077-0.055,0.113-0.097c0.036-0.042,0.069-0.092,0.102-0.151
			c0.031-0.059,0.06-0.124,0.085-0.196l0.054-0.434c-0.043-0.014-0.088-0.021-0.138-0.021c-0.048,0-0.094,0.008-0.139,0.024
			s-0.088,0.038-0.127,0.067c-0.04,0.028-0.076,0.062-0.109,0.102c-0.033,0.04-0.062,0.083-0.086,0.129
			c-0.024,0.047-0.043,0.096-0.057,0.148c-0.013,0.052-0.02,0.105-0.02,0.16c0,0.096,0.017,0.17,0.049,0.223
			S68.271,16.547,68.341,16.547z"/>
		<path fill="#CECECE" d="M69.536,16.617l0.129-1.068h0.046c0.024,0,0.037,0.013,0.037,0.039l-0.031,0.317
			c0.049-0.116,0.104-0.206,0.167-0.27c0.062-0.063,0.129-0.095,0.199-0.095c0.029,0,0.06,0.006,0.09,0.019l-0.018,0.095
			c-0.033-0.012-0.063-0.019-0.093-0.019c-0.076,0-0.145,0.038-0.206,0.113c-0.061,0.075-0.113,0.184-0.156,0.326l-0.064,0.542
			H69.536z"/>
		<path fill="#CECECE" d="M71.01,15.756c0,0.029-0.004,0.057-0.012,0.083s-0.022,0.051-0.042,0.075
			c-0.021,0.024-0.047,0.046-0.081,0.067c-0.035,0.021-0.078,0.04-0.132,0.058s-0.118,0.033-0.192,0.047
			c-0.074,0.014-0.161,0.026-0.261,0.037c-0.001,0.015-0.003,0.03-0.003,0.044c-0.001,0.015-0.001,0.029-0.001,0.043
			c0,0.106,0.023,0.189,0.072,0.25c0.048,0.059,0.12,0.09,0.218,0.09c0.037,0,0.071-0.005,0.102-0.013
			c0.03-0.009,0.058-0.019,0.082-0.032c0.023-0.012,0.045-0.026,0.062-0.04c0.019-0.015,0.035-0.028,0.049-0.041
			c0.015-0.013,0.026-0.023,0.037-0.031c0.011-0.008,0.02-0.013,0.028-0.013s0.017,0.004,0.022,0.011l0.023,0.028
			c-0.035,0.037-0.068,0.069-0.102,0.096c-0.033,0.026-0.067,0.049-0.101,0.065c-0.034,0.018-0.069,0.03-0.105,0.038
			c-0.037,0.008-0.076,0.013-0.117,0.013c-0.06,0-0.112-0.011-0.158-0.03s-0.084-0.047-0.116-0.083
			c-0.031-0.036-0.055-0.08-0.071-0.131s-0.024-0.11-0.024-0.174c0-0.053,0.005-0.107,0.016-0.162s0.026-0.106,0.048-0.156
			s0.047-0.097,0.078-0.14s0.066-0.082,0.106-0.114c0.04-0.032,0.084-0.057,0.133-0.076s0.101-0.028,0.157-0.028
			c0.053,0,0.097,0.007,0.133,0.022c0.035,0.015,0.064,0.033,0.087,0.054c0.022,0.022,0.039,0.045,0.049,0.071
			C71.005,15.71,71.01,15.734,71.01,15.756z M70.721,15.612c-0.058,0-0.109,0.012-0.155,0.037c-0.046,0.024-0.087,0.057-0.122,0.097
			c-0.035,0.041-0.064,0.087-0.089,0.14c-0.023,0.053-0.041,0.109-0.053,0.167c0.091-0.01,0.169-0.021,0.234-0.035
			s0.121-0.027,0.167-0.042s0.083-0.031,0.111-0.048c0.027-0.017,0.05-0.035,0.065-0.053c0.016-0.018,0.026-0.037,0.031-0.056
			c0.006-0.019,0.009-0.039,0.009-0.06c0-0.015-0.004-0.031-0.011-0.049s-0.018-0.034-0.033-0.048s-0.036-0.026-0.062-0.036
			S70.758,15.612,70.721,15.612z"/>
		<path fill="#CECECE" d="M71.891,16.617h-0.05c-0.014,0-0.022-0.003-0.028-0.01c-0.005-0.006-0.008-0.014-0.008-0.023l0.035-0.334
			c-0.027,0.057-0.057,0.109-0.089,0.156c-0.033,0.047-0.067,0.087-0.104,0.12c-0.036,0.033-0.075,0.061-0.116,0.078
			c-0.04,0.019-0.082,0.028-0.126,0.028c-0.045,0-0.084-0.009-0.118-0.026c-0.033-0.018-0.062-0.043-0.084-0.074
			c-0.022-0.032-0.039-0.071-0.051-0.117c-0.011-0.045-0.017-0.097-0.017-0.154c0-0.062,0.008-0.123,0.023-0.183
			s0.038-0.116,0.066-0.17c0.029-0.053,0.063-0.103,0.104-0.147s0.084-0.084,0.133-0.117c0.048-0.033,0.1-0.059,0.154-0.077
			s0.111-0.028,0.17-0.028c0.043,0,0.083,0.004,0.12,0.011s0.074,0.021,0.11,0.039L71.891,16.617z M71.438,16.547
			c0.041,0,0.081-0.012,0.12-0.034c0.04-0.023,0.077-0.055,0.113-0.097c0.036-0.042,0.069-0.092,0.102-0.151
			c0.031-0.059,0.06-0.124,0.085-0.196l0.054-0.434c-0.043-0.014-0.088-0.021-0.138-0.021c-0.048,0-0.094,0.008-0.139,0.024
			s-0.088,0.038-0.127,0.067c-0.04,0.028-0.076,0.062-0.109,0.102c-0.033,0.04-0.062,0.083-0.086,0.129
			c-0.024,0.047-0.043,0.096-0.057,0.148c-0.013,0.052-0.02,0.105-0.02,0.16c0,0.096,0.017,0.17,0.049,0.223
			S71.368,16.547,71.438,16.547z"/>
		<path fill="#CECECE" d="M72.245,16.617l0.188-1.557h0.1l-0.189,1.557H72.245z"/>
		<path fill="#CECECE" d="M73.828,15.83c0,0.04-0.006,0.075-0.016,0.107c-0.009,0.032-0.021,0.062-0.035,0.088
			c-0.015,0.027-0.03,0.052-0.047,0.075c-0.017,0.023-0.032,0.046-0.047,0.068c-0.014,0.022-0.025,0.044-0.035,0.067
			c-0.009,0.023-0.014,0.047-0.014,0.073c0,0.021,0.004,0.042,0.013,0.06s0.02,0.036,0.031,0.053
			c0.013,0.017,0.026,0.034,0.042,0.052c0.015,0.018,0.028,0.035,0.041,0.055s0.022,0.041,0.031,0.063s0.013,0.048,0.013,0.076
			c0,0.045-0.011,0.089-0.034,0.13c-0.022,0.041-0.055,0.078-0.096,0.111c-0.042,0.031-0.092,0.057-0.149,0.076
			c-0.059,0.02-0.123,0.029-0.194,0.029c-0.057,0-0.108-0.006-0.155-0.018s-0.087-0.027-0.121-0.049
			c-0.033-0.021-0.06-0.049-0.078-0.08s-0.028-0.066-0.028-0.107c0-0.051,0.014-0.096,0.04-0.135
			c0.027-0.04,0.063-0.074,0.109-0.101c0.046-0.027,0.1-0.048,0.161-0.062c0.061-0.014,0.126-0.021,0.196-0.021
			c0.024,0,0.049,0.001,0.072,0.003c0.024,0.001,0.049,0.004,0.074,0.008c-0.012-0.017-0.022-0.034-0.03-0.053
			c-0.009-0.019-0.013-0.04-0.013-0.062c0-0.025,0.005-0.05,0.013-0.076c0.009-0.026,0.025-0.057,0.05-0.093
			c-0.029,0.02-0.061,0.035-0.093,0.046s-0.068,0.016-0.106,0.016c-0.041,0-0.079-0.006-0.113-0.019
			c-0.035-0.013-0.065-0.032-0.091-0.058s-0.045-0.056-0.06-0.093c-0.014-0.037-0.021-0.08-0.021-0.128
			c0-0.049,0.009-0.098,0.026-0.146c0.018-0.047,0.043-0.089,0.076-0.126s0.074-0.067,0.122-0.089
			c0.049-0.022,0.104-0.034,0.166-0.034c0.037,0,0.071,0.004,0.104,0.013s0.061,0.022,0.085,0.04h0.278l-0.004,0.034
			c-0.001,0.007-0.003,0.014-0.008,0.019s-0.012,0.009-0.022,0.01l-0.173,0.014c0.013,0.022,0.022,0.047,0.029,0.074
			C73.825,15.768,73.828,15.798,73.828,15.83z M73.713,16.674c0-0.035-0.006-0.065-0.018-0.09c-0.011-0.025-0.025-0.049-0.041-0.068
			l0.001,0.002c-0.035-0.006-0.068-0.01-0.1-0.012s-0.062-0.003-0.091-0.003c-0.071,0-0.133,0.007-0.185,0.021
			c-0.052,0.013-0.096,0.031-0.13,0.053c-0.035,0.023-0.061,0.049-0.078,0.079s-0.026,0.062-0.026,0.095
			c0,0.029,0.007,0.057,0.021,0.08c0.015,0.025,0.034,0.045,0.06,0.061c0.026,0.016,0.057,0.029,0.094,0.037
			c0.036,0.008,0.076,0.014,0.12,0.014c0.056,0,0.106-0.008,0.152-0.023s0.085-0.035,0.117-0.061
			c0.032-0.023,0.058-0.053,0.075-0.084C73.703,16.74,73.712,16.707,73.713,16.674z M73.446,16.163c0.046,0,0.087-0.01,0.123-0.029
			c0.035-0.02,0.066-0.044,0.091-0.076c0.025-0.031,0.044-0.066,0.057-0.106c0.014-0.04,0.02-0.079,0.02-0.119
			c0-0.074-0.02-0.13-0.059-0.167c-0.039-0.038-0.092-0.056-0.158-0.056c-0.046,0-0.087,0.009-0.122,0.027
			c-0.036,0.018-0.066,0.042-0.091,0.072c-0.024,0.03-0.043,0.064-0.057,0.103c-0.013,0.039-0.019,0.079-0.019,0.12
			c0,0.076,0.019,0.133,0.058,0.172C73.327,16.143,73.38,16.163,73.446,16.163z"/>
		<path fill="#CECECE" d="M74.412,16.632c-0.057,0-0.109-0.011-0.155-0.03c-0.047-0.02-0.087-0.049-0.12-0.086
			c-0.033-0.039-0.06-0.084-0.077-0.138c-0.019-0.054-0.027-0.115-0.027-0.184c0-0.086,0.013-0.169,0.038-0.249
			c0.026-0.08,0.062-0.15,0.109-0.21c0.046-0.061,0.102-0.109,0.166-0.145s0.135-0.054,0.212-0.054c0.058,0,0.109,0.01,0.156,0.031
			c0.046,0.02,0.086,0.049,0.119,0.086c0.033,0.038,0.06,0.083,0.077,0.138c0.019,0.054,0.027,0.115,0.027,0.182
			c0,0.086-0.013,0.169-0.039,0.249c-0.025,0.079-0.062,0.149-0.108,0.21s-0.102,0.11-0.166,0.146S74.489,16.632,74.412,16.632z
			 M74.421,16.551c0.062,0,0.118-0.016,0.17-0.049c0.051-0.032,0.095-0.075,0.131-0.129s0.064-0.116,0.084-0.185
			c0.02-0.07,0.029-0.141,0.029-0.215c0-0.114-0.025-0.202-0.076-0.264c-0.051-0.062-0.121-0.093-0.211-0.093
			c-0.041,0-0.08,0.007-0.116,0.022c-0.037,0.015-0.07,0.035-0.101,0.062c-0.031,0.026-0.059,0.058-0.083,0.094
			c-0.024,0.036-0.046,0.075-0.062,0.118s-0.029,0.088-0.038,0.136s-0.014,0.097-0.014,0.147c0,0.113,0.025,0.201,0.075,0.264
			C74.26,16.52,74.33,16.551,74.421,16.551z"/>
		<path fill="#CECECE" d="M75.47,16.632c-0.057,0-0.109-0.011-0.155-0.03c-0.047-0.02-0.087-0.049-0.12-0.086
			c-0.033-0.039-0.06-0.084-0.077-0.138c-0.019-0.054-0.027-0.115-0.027-0.184c0-0.086,0.013-0.169,0.038-0.249
			c0.026-0.08,0.062-0.15,0.109-0.21c0.046-0.061,0.102-0.109,0.166-0.145s0.135-0.054,0.212-0.054c0.058,0,0.109,0.01,0.156,0.031
			c0.046,0.02,0.086,0.049,0.119,0.086c0.033,0.038,0.06,0.083,0.077,0.138c0.019,0.054,0.027,0.115,0.027,0.182
			c0,0.086-0.013,0.169-0.039,0.249c-0.025,0.079-0.062,0.149-0.108,0.21s-0.102,0.11-0.166,0.146S75.547,16.632,75.47,16.632z
			 M75.479,16.551c0.062,0,0.118-0.016,0.17-0.049c0.051-0.032,0.095-0.075,0.131-0.129s0.064-0.116,0.084-0.185
			c0.02-0.07,0.029-0.141,0.029-0.215c0-0.114-0.025-0.202-0.076-0.264c-0.051-0.062-0.121-0.093-0.211-0.093
			c-0.041,0-0.08,0.007-0.116,0.022c-0.037,0.015-0.07,0.035-0.101,0.062c-0.031,0.026-0.059,0.058-0.083,0.094
			c-0.024,0.036-0.046,0.075-0.062,0.118s-0.029,0.088-0.038,0.136s-0.014,0.097-0.014,0.147c0,0.113,0.025,0.201,0.075,0.264
			C75.317,16.52,75.388,16.551,75.479,16.551z"/>
		<path fill="#CECECE" d="M76.875,16.617c-0.014,0-0.022-0.003-0.028-0.01c-0.005-0.006-0.008-0.014-0.008-0.023l0.035-0.339
			c-0.027,0.058-0.059,0.11-0.094,0.158c-0.034,0.048-0.071,0.088-0.109,0.123c-0.039,0.033-0.079,0.061-0.121,0.078
			c-0.042,0.019-0.085,0.028-0.129,0.028c-0.046,0-0.087-0.009-0.121-0.026c-0.035-0.019-0.064-0.044-0.088-0.076
			c-0.024-0.033-0.042-0.073-0.054-0.119c-0.013-0.046-0.019-0.099-0.019-0.156c0-0.055,0.006-0.11,0.018-0.167
			c0.011-0.057,0.027-0.112,0.049-0.165c0.021-0.053,0.046-0.103,0.077-0.15c0.03-0.047,0.064-0.087,0.103-0.123
			c0.039-0.035,0.081-0.062,0.127-0.083c0.045-0.021,0.094-0.03,0.146-0.03c0.058,0,0.11,0.012,0.159,0.038s0.089,0.063,0.12,0.114
			l0.078-0.628h0.099l-0.19,1.557H76.875z M76.454,16.549c0.041,0,0.082-0.011,0.122-0.033c0.041-0.022,0.08-0.055,0.119-0.096
			c0.038-0.041,0.073-0.091,0.106-0.149c0.033-0.059,0.062-0.123,0.089-0.193l0.037-0.309c-0.03-0.056-0.069-0.095-0.114-0.118
			c-0.046-0.023-0.094-0.034-0.143-0.034c-0.045,0-0.087,0.009-0.126,0.027s-0.074,0.043-0.105,0.074
			c-0.032,0.032-0.061,0.068-0.085,0.109s-0.045,0.085-0.062,0.132c-0.017,0.046-0.029,0.094-0.038,0.143
			c-0.009,0.049-0.014,0.097-0.014,0.143c0,0.096,0.019,0.17,0.055,0.224C76.331,16.522,76.385,16.549,76.454,16.549z"/>
		<path fill="#CECECE" d="M77.765,16.439c0-0.004,0-0.01,0-0.016c0.001-0.006,0.001-0.016,0.003-0.029
			c0.001-0.013,0.003-0.03,0.005-0.05c0.003-0.021,0.006-0.046,0.009-0.078l0.073-0.605h-0.141c-0.014,0-0.021-0.007-0.021-0.021
			l0.006-0.044l0.168-0.013l0.07-0.381c0.002-0.007,0.005-0.012,0.01-0.017c0.005-0.005,0.012-0.008,0.019-0.008h0.049l-0.05,0.407
			h0.308l-0.008,0.076h-0.309l-0.074,0.601c-0.003,0.029-0.006,0.053-0.008,0.072c-0.003,0.018-0.004,0.034-0.006,0.045
			c-0.001,0.012-0.002,0.021-0.003,0.026c0,0.006,0,0.01,0,0.013c0,0.046,0.011,0.08,0.032,0.101
			c0.022,0.021,0.05,0.031,0.084,0.031c0.023,0,0.045-0.004,0.062-0.012c0.019-0.008,0.034-0.016,0.048-0.025
			c0.014-0.008,0.024-0.017,0.033-0.024s0.016-0.011,0.02-0.011s0.008,0.001,0.01,0.002c0.002,0.002,0.004,0.005,0.006,0.008
			l0.02,0.045c-0.028,0.03-0.063,0.055-0.104,0.073c-0.041,0.018-0.082,0.027-0.122,0.027c-0.059,0-0.104-0.016-0.138-0.049
			C77.782,16.555,77.766,16.506,77.765,16.439z"/>
		<path fill="#CECECE" d="M78.64,15.552l-0.129,1.065h-0.1l0.129-1.065H78.64z M78.718,15.185c0,0.013-0.002,0.025-0.007,0.036
			c-0.006,0.011-0.013,0.021-0.021,0.029c-0.009,0.009-0.019,0.016-0.029,0.021c-0.012,0.005-0.022,0.007-0.034,0.007
			s-0.023-0.002-0.034-0.007s-0.021-0.012-0.028-0.021c-0.009-0.008-0.015-0.019-0.02-0.029c-0.006-0.011-0.008-0.023-0.008-0.036
			c0-0.013,0.002-0.025,0.008-0.036c0.005-0.012,0.011-0.021,0.02-0.031c0.008-0.009,0.018-0.016,0.028-0.021
			c0.011-0.005,0.022-0.008,0.034-0.008s0.022,0.002,0.034,0.008c0.011,0.005,0.021,0.012,0.029,0.02
			c0.008,0.009,0.015,0.019,0.021,0.031C78.716,15.16,78.718,15.172,78.718,15.185z"/>
		<path fill="#CECECE" d="M78.869,16.617l0.129-1.068h0.046c0.024,0,0.037,0.013,0.037,0.039l-0.03,0.297
			c0.056-0.11,0.12-0.196,0.193-0.257c0.072-0.061,0.149-0.091,0.229-0.091c0.072,0,0.123,0.022,0.153,0.067
			s0.045,0.109,0.045,0.194c0,0.024-0.001,0.05-0.003,0.078c0.027-0.057,0.059-0.107,0.092-0.149s0.067-0.078,0.104-0.106
			c0.037-0.028,0.074-0.049,0.113-0.063c0.038-0.014,0.076-0.021,0.114-0.021c0.076,0,0.132,0.024,0.165,0.072
			c0.033,0.048,0.05,0.117,0.05,0.206c0,0.007,0,0.015,0,0.024s-0.002,0.023-0.003,0.042c-0.002,0.019-0.005,0.045-0.009,0.08
			c-0.003,0.034-0.008,0.079-0.015,0.136s-0.015,0.128-0.024,0.213c-0.01,0.084-0.022,0.187-0.036,0.307h-0.1l0.08-0.681
			c0.003-0.022,0.005-0.043,0.006-0.062c0.002-0.02,0.003-0.039,0.003-0.057c0-0.064-0.012-0.113-0.033-0.146
			c-0.022-0.033-0.062-0.05-0.116-0.05c-0.035,0-0.07,0.008-0.106,0.024s-0.071,0.04-0.105,0.072
			c-0.035,0.032-0.067,0.073-0.099,0.121c-0.031,0.049-0.06,0.106-0.084,0.171l-0.072,0.607h-0.1l0.08-0.681
			c0.007-0.049,0.01-0.093,0.01-0.132c0-0.06-0.01-0.105-0.03-0.137c-0.021-0.031-0.058-0.046-0.11-0.046
			c-0.082,0-0.157,0.037-0.226,0.111c-0.069,0.074-0.13,0.179-0.182,0.315l-0.067,0.57H78.869z"/>
		<path fill="#CECECE" d="M81.327,15.756c0,0.029-0.004,0.057-0.012,0.083s-0.022,0.051-0.042,0.075
			c-0.021,0.024-0.047,0.046-0.081,0.067c-0.035,0.021-0.078,0.04-0.132,0.058s-0.118,0.033-0.192,0.047
			c-0.074,0.014-0.161,0.026-0.261,0.037c-0.001,0.015-0.003,0.03-0.003,0.044c-0.001,0.015-0.001,0.029-0.001,0.043
			c0,0.106,0.023,0.189,0.072,0.25c0.048,0.059,0.12,0.09,0.218,0.09c0.037,0,0.071-0.005,0.102-0.013
			c0.03-0.009,0.058-0.019,0.082-0.032c0.023-0.012,0.045-0.026,0.062-0.04c0.019-0.015,0.035-0.028,0.049-0.041
			c0.015-0.013,0.026-0.023,0.037-0.031c0.011-0.008,0.02-0.013,0.028-0.013s0.017,0.004,0.022,0.011l0.023,0.028
			c-0.035,0.037-0.068,0.069-0.102,0.096c-0.033,0.026-0.067,0.049-0.101,0.065c-0.034,0.018-0.069,0.03-0.105,0.038
			c-0.037,0.008-0.076,0.013-0.117,0.013c-0.06,0-0.112-0.011-0.158-0.03s-0.084-0.047-0.116-0.083
			c-0.031-0.036-0.055-0.08-0.071-0.131s-0.024-0.11-0.024-0.174c0-0.053,0.005-0.107,0.016-0.162s0.026-0.106,0.048-0.156
			s0.047-0.097,0.078-0.14s0.066-0.082,0.106-0.114c0.04-0.032,0.084-0.057,0.133-0.076s0.101-0.028,0.157-0.028
			c0.053,0,0.097,0.007,0.133,0.022c0.035,0.015,0.064,0.033,0.087,0.054c0.022,0.022,0.039,0.045,0.049,0.071
			C81.322,15.71,81.327,15.734,81.327,15.756z M81.038,15.612c-0.058,0-0.109,0.012-0.155,0.037
			c-0.046,0.024-0.087,0.057-0.122,0.097c-0.035,0.041-0.064,0.087-0.089,0.14c-0.023,0.053-0.041,0.109-0.053,0.167
			c0.091-0.01,0.169-0.021,0.234-0.035s0.121-0.027,0.167-0.042s0.083-0.031,0.111-0.048c0.027-0.017,0.05-0.035,0.065-0.053
			c0.016-0.018,0.026-0.037,0.031-0.056c0.006-0.019,0.009-0.039,0.009-0.06c0-0.015-0.004-0.031-0.011-0.049
			s-0.018-0.034-0.033-0.048s-0.036-0.026-0.062-0.036S81.075,15.612,81.038,15.612z"/>
	</g>
	<circle fill="#FFFFFF" cx="39.335" cy="6.505" r="0.656"/>
	<circle fill="#FFFFFF" cx="36.914" cy="6.304" r="0.303"/>
	<circle fill="#FFFFFF" cx="38.076" cy="4.134" r="0.959"/>
</g>
</svg>
